REM DIRINDEX 1\2,1\3,1\4,1\5
REM DIRNAME cjc004,folder01,folder02,folder03,folder04
TITLE ""
FILE "1Q_t_0170-0179.mp3" MP3
  TRACK 01 AUDIO
    TITLE "3:cjc004_1410"
    INDEX 01 00:00:00
  TRACK 02 AUDIO
    TITLE "0:"
    INDEX 01 00:01:03
  TRACK 03 AUDIO
    TITLE "4:cjc004_1411"
    INDEX 01 00:01:32
  TRACK 04 AUDIO
    TITLE "0:"
    INDEX 01 00:02:51
  TRACK 05 AUDIO
    TITLE "5:cjc004_1412"
    INDEX 01 00:03:00
  TRACK 06 AUDIO
    TITLE "0:"
    INDEX 01 00:07:23
  TRACK 07 AUDIO
    TITLE "3:cjc004_1413"
    INDEX 01 00:08:11
  TRACK 08 AUDIO
    TITLE "0:"
    INDEX 01 00:09:18
  TRACK 09 AUDIO
    TITLE "4:cjc004_1414"
    INDEX 01 00:09:45
  TRACK 10 AUDIO
    TITLE "0:"
    INDEX 01 00:10:74
  TRACK 11 AUDIO
    TITLE "5:cjc004_1415"
    INDEX 01 00:11:23
  TRACK 12 AUDIO
    TITLE "0:"
    INDEX 01 00:16:10
  TRACK 13 AUDIO
    TITLE "3:cjc004_1416"
    INDEX 01 00:16:67
  TRACK 14 AUDIO
    TITLE "0:"
    INDEX 01 00:17:63
  TRACK 15 AUDIO
    TITLE "4:cjc004_1417"
    INDEX 01 00:18:27
  TRACK 16 AUDIO
    TITLE "0:"
    INDEX 01 00:19:63
  TRACK 17 AUDIO
    TITLE "5:cjc004_1418"
    INDEX 01 00:20:18
  TRACK 18 AUDIO
    TITLE "0:"
    INDEX 01 00:24:69
  TRACK 19 AUDIO
    TITLE "3:cjc004_1419"
    INDEX 01 00:25:50
  TRACK 20 AUDIO
    TITLE "0:"
    INDEX 01 00:26:73
  TRACK 21 AUDIO
    TITLE "4:cjc004_1420"
    INDEX 01 00:27:24
  TRACK 22 AUDIO
    TITLE "0:"
    INDEX 01 00:28:62
  TRACK 23 AUDIO
    TITLE "5:cjc004_1421"
    INDEX 01 00:29:13
  TRACK 24 AUDIO
    TITLE "0:"
    INDEX 01 00:34:06
  TRACK 25 AUDIO
    TITLE "3:cjc004_1422"
    INDEX 01 00:34:57
  TRACK 26 AUDIO
    TITLE "0:"
    INDEX 01 00:36:11
  TRACK 27 AUDIO
    TITLE "4:cjc004_1423"
    INDEX 01 00:36:35
  TRACK 28 AUDIO
    TITLE "0:"
    INDEX 01 00:37:67
  TRACK 29 AUDIO
    TITLE "5:cjc004_1424"
    INDEX 01 00:38:18
  TRACK 30 AUDIO
    TITLE "0:"
    INDEX 01 00:43:44
  TRACK 31 AUDIO
    TITLE "3:cjc004_1425"
    INDEX 01 00:44:24
  TRACK 32 AUDIO
    TITLE "0:"
    INDEX 01 00:45:33
  TRACK 33 AUDIO
    TITLE "4:cjc004_1426"
    INDEX 01 00:45:55
  TRACK 34 AUDIO
    TITLE "0:"
    INDEX 01 00:47:36
  TRACK 35 AUDIO
    TITLE "5:cjc004_1427"
    INDEX 01 00:47:60
  TRACK 36 AUDIO
    TITLE "0:"
    INDEX 01 00:53:08
  TRACK 37 AUDIO
    TITLE "3:cjc004_1428"
    INDEX 01 00:53:57
  TRACK 38 AUDIO
    TITLE "0:"
    INDEX 01 00:54:66
  TRACK 39 AUDIO
    TITLE "4:cjc004_1429"
    INDEX 01 00:55:12
  TRACK 40 AUDIO
    TITLE "0:"
    INDEX 01 00:56:51
  TRACK 41 AUDIO
    TITLE "5:cjc004_1430"
    INDEX 01 00:57:03
  TRACK 42 AUDIO
    TITLE "0:"
    INDEX 01 01:02:08
  TRACK 43 AUDIO
    TITLE "3:cjc004_1431"
    INDEX 01 01:02:67
  TRACK 44 AUDIO
    TITLE "0:"
    INDEX 01 01:04:03
  TRACK 45 AUDIO
    TITLE "4:cjc004_1432"
    INDEX 01 01:04:33
  TRACK 46 AUDIO
    TITLE "0:"
    INDEX 01 01:05:34
  TRACK 47 AUDIO
    TITLE "5:cjc004_1433"
    INDEX 01 01:05:66
  TRACK 48 AUDIO
    TITLE "0:"
    INDEX 01 01:09:61
  TRACK 49 AUDIO
    TITLE "3:cjc004_1434"
    INDEX 01 01:10:43
  TRACK 50 AUDIO
    TITLE "0:"
    INDEX 01 01:11:41
  TRACK 51 AUDIO
    TITLE "4:cjc004_1435"
    INDEX 01 01:11:66
  TRACK 52 AUDIO
    TITLE "0:"
    INDEX 01 01:13:26
  TRACK 53 AUDIO
    TITLE "5:cjc004_1436"
    INDEX 01 01:13:53
  TRACK 54 AUDIO
    TITLE "0:"
    INDEX 01 01:18:62
  TRACK 55 AUDIO
    TITLE "3:cjc004_1437"
    INDEX 01 01:19:50
  TRACK 56 AUDIO
    TITLE "0:"
    INDEX 01 01:20:61
  TRACK 57 AUDIO
    TITLE "4:cjc004_1438"
    INDEX 01 01:21:21
  TRACK 58 AUDIO
    TITLE "0:"
    INDEX 01 01:22:35
  TRACK 59 AUDIO
    TITLE "5:cjc004_1439"
    INDEX 01 01:22:60
  TRACK 60 AUDIO
    TITLE "0:"
    INDEX 01 01:27:57
